<?xml version="1.0" encoding="UTF-8" standalone="no"?>
<!DOCTYPE svg PUBLIC "-//W3C//DTD SVG 1.1//EN" "http://www.w3.org/Graphics/SVG/1.1/DTD/svg11.dtd">
<svg width="100%" height="100%" viewBox="0 0 103 103" version="1.1" xmlns="http://www.w3.org/2000/svg" xmlns:xlink="http://www.w3.org/1999/xlink" xml:space="preserve" xmlns:serif="http://www.serif.com/" style="fill-rule:evenodd;clip-rule:evenodd;stroke-linejoin:round;stroke-miterlimit:2;">
    <g transform="matrix(1,0,0,1,-217.696,-270.573)">
        <g transform="matrix(1.17675,0,0,1.17335,-123.279,-342.942)">
            <path d="M289.76,525.859C289.759,524.213 291.09,522.875 292.732,522.874C294.374,522.873 295.707,524.209 295.708,525.855L295.765,604.463L374.323,604.691C375.965,604.696 377.294,606.036 377.289,607.683C377.284,609.329 375.948,610.662 374.306,610.657L292.785,610.421C291.146,610.416 289.82,609.083 289.819,607.44L289.76,525.859ZM370.59,530.411L370.59,597.307C370.59,598.954 369.259,600.29 367.616,600.29L354.474,600.29C352.832,600.29 351.5,598.954 351.5,597.307L351.5,530.411C351.5,528.764 352.832,527.428 354.474,527.428L367.616,527.428C369.259,527.428 370.59,528.764 370.59,530.411ZM364.642,533.394L357.449,533.394C357.449,533.394 357.449,594.324 357.449,594.324L364.642,594.324L364.642,533.394ZM319.856,547.173L319.856,597.307C319.856,598.954 318.524,600.29 316.882,600.29L303.74,600.29C302.097,600.29 300.765,598.954 300.765,597.307L300.765,547.173C300.765,545.525 302.097,544.19 303.74,544.19L316.882,544.19C318.524,544.19 319.856,545.525 319.856,547.173ZM313.907,550.156C313.907,550.156 306.714,550.156 306.714,550.156C306.714,550.156 306.714,594.324 306.714,594.324C306.714,594.324 313.907,594.324 313.907,594.324L313.907,550.156ZM345.223,564.884L345.223,597.307C345.223,598.954 343.891,600.29 342.249,600.29L329.107,600.29C327.464,600.29 326.133,598.954 326.133,597.307L326.133,564.884C326.133,563.236 327.464,561.901 329.107,561.901L342.249,561.901C343.891,561.901 345.223,563.236 345.223,564.884ZM339.275,567.867L332.081,567.867C332.081,567.867 332.081,594.324 332.081,594.324L339.275,594.324L339.275,567.867Z" style="fill:white;"/>
        </g>
    </g>
</svg>
