<?xml version="1.0" encoding="UTF-8" standalone="no"?>
<!DOCTYPE svg PUBLIC "-//W3C//DTD SVG 1.1//EN" "http://www.w3.org/Graphics/SVG/1.1/DTD/svg11.dtd">
<svg width="100%" height="100%" viewBox="0 0 81 99" version="1.1" xmlns="http://www.w3.org/2000/svg" xmlns:xlink="http://www.w3.org/1999/xlink" xml:space="preserve" xmlns:serif="http://www.serif.com/" style="fill-rule:evenodd;clip-rule:evenodd;stroke-linejoin:round;stroke-miterlimit:2;">
    <g transform="matrix(1,0,0,1,-759.986,-267.806)">
        <g transform="matrix(1.15381,0,0,1.39696,330.222,-247.719)">
            <path d="M442.112,373.06L442.112,435.874L442.013,436.683L441.727,437.442L441.277,438.127L440.683,438.721L439.964,439.211L439.135,439.583L438.216,439.819L437.236,439.901L377.35,439.901L376.37,439.819L375.45,439.583L374.621,439.211L373.902,438.721L373.308,438.127L372.858,437.442L372.573,436.683L372.473,435.874L372.473,373.06L372.573,372.251L372.858,371.492L373.308,370.807L373.902,370.213L374.621,369.723L375.45,369.351L376.37,369.115L377.35,369.033L437.236,369.033L438.216,369.115L439.135,369.351L439.964,369.723L440.683,370.213L441.277,370.807L441.727,371.492L442.013,372.251L442.112,373.06ZM378.54,374.044L378.54,434.89L436.045,434.89L436.045,374.044L378.54,374.044ZM387.24,399.68C389.493,399.68 391.322,401.195 391.322,403.061C391.322,404.926 389.493,406.441 387.24,406.441C384.987,406.441 383.158,404.926 383.158,403.061C383.158,401.195 384.987,399.68 387.24,399.68ZM431.118,380.272L431.118,390.361C431.118,391.745 429.76,392.866 428.084,392.866L386.39,392.866C384.714,392.866 383.356,391.745 383.356,390.361L383.356,380.272C383.356,378.888 384.714,377.766 386.39,377.766L428.084,377.766C429.76,377.766 431.118,378.888 431.118,380.272ZM425.051,382.777C425.051,382.777 389.423,382.777 389.423,382.777L389.423,387.856C389.423,387.856 425.051,387.856 425.051,387.856L425.051,382.777ZM400.608,399.68C402.861,399.68 404.69,401.195 404.69,403.061C404.69,404.926 402.861,406.441 400.608,406.441C398.356,406.441 396.527,404.926 396.527,403.061C396.527,401.195 398.356,399.68 400.608,399.68ZM414.844,421.789C417.096,421.789 418.925,423.304 418.925,425.169C418.925,427.035 417.096,428.55 414.844,428.55C412.591,428.55 410.762,427.035 410.762,425.169C410.762,423.304 412.591,421.789 414.844,421.789ZM424.312,413.043C424.312,411.66 425.671,410.538 427.345,410.538C429.019,410.538 430.379,411.66 430.379,413.043L430.379,426.167C430.379,427.549 429.019,428.672 427.345,428.672C425.671,428.672 424.312,427.549 424.312,426.167L424.312,413.043ZM401.475,421.789C403.728,421.789 405.557,423.304 405.557,425.169C405.557,427.035 403.728,428.55 401.475,428.55C399.222,428.55 397.393,427.035 397.393,425.169C397.393,423.304 399.222,421.789 401.475,421.789ZM388.107,421.789C390.359,421.789 392.188,423.304 392.188,425.169C392.188,427.035 390.359,428.55 388.107,428.55C385.854,428.55 384.025,427.035 384.025,425.169C384.025,423.304 385.854,421.789 388.107,421.789ZM427.345,399.68C429.598,399.68 431.427,401.195 431.427,403.061C431.427,404.926 429.598,406.441 427.345,406.441C425.093,406.441 423.264,404.926 423.264,403.061C423.264,401.195 425.093,399.68 427.345,399.68ZM414.844,410.734C417.096,410.734 418.925,412.249 418.925,414.115C418.925,415.981 417.096,417.496 414.844,417.496C412.591,417.496 410.762,415.981 410.762,414.115C410.762,412.249 412.591,410.734 414.844,410.734ZM401.475,410.734C403.728,410.734 405.557,412.249 405.557,414.115C405.557,415.981 403.728,417.496 401.475,417.496C399.222,417.496 397.393,415.981 397.393,414.115C397.393,412.249 399.222,410.734 401.475,410.734ZM413.977,399.68C416.23,399.68 418.059,401.195 418.059,403.061C418.059,404.926 416.23,406.441 413.977,406.441C411.724,406.441 409.895,404.926 409.895,403.061C409.895,401.195 411.724,399.68 413.977,399.68ZM388.107,410.734C390.359,410.734 392.188,412.249 392.188,414.115C392.188,415.981 390.359,417.496 388.107,417.496C385.854,417.496 384.025,415.981 384.025,414.115C384.025,412.249 385.854,410.734 388.107,410.734Z" style="fill:white;"/>
        </g>
    </g>
</svg>
