<?xml version="1.0" encoding="UTF-8" standalone="no"?>
<!DOCTYPE svg PUBLIC "-//W3C//DTD SVG 1.1//EN" "http://www.w3.org/Graphics/SVG/1.1/DTD/svg11.dtd">
<svg width="100%" height="100%" viewBox="0 0 103 100" version="1.1" xmlns="http://www.w3.org/2000/svg" xmlns:xlink="http://www.w3.org/1999/xlink" xml:space="preserve" xmlns:serif="http://www.serif.com/" style="fill-rule:evenodd;clip-rule:evenodd;stroke-linejoin:round;stroke-miterlimit:2;">
    <g transform="matrix(1,0,0,1,-353.289,-274.045)">
        <g transform="matrix(1.41423,0,0,1.41423,-169.273,-237.773)">
            <path d="M427.463,367.703L438.136,367.703L438.979,367.788L439.771,368.034L440.484,368.421L441.103,368.932L441.614,369.551L442.001,370.264L442.247,371.056L442.332,371.899L442.332,427.852L442.247,428.695L442.001,429.486L441.614,430.2L441.103,430.819L440.484,431.33L439.771,431.717L438.979,431.963L438.136,432.048L373.698,432.048L372.855,431.963L372.063,431.717L371.35,431.33L370.731,430.819L370.22,430.2L369.833,429.486L369.587,428.695L369.502,427.852L369.502,371.899L369.587,371.056L369.833,370.264L370.22,369.551L370.731,368.932L371.35,368.421L372.063,368.034L372.855,367.788L373.698,367.703L384.387,367.703L384.315,364.434C384.285,363.068 385.37,361.935 386.736,361.906C388.101,361.876 389.234,362.96 389.264,364.326L389.337,367.703L422.512,367.703L422.441,364.434C422.411,363.068 423.495,361.935 424.861,361.906C426.226,361.876 427.359,362.96 427.389,364.326L427.463,367.703ZM384.494,372.652L374.451,372.652L374.451,385.542L437.383,385.258L437.383,372.652L427.571,372.652L427.655,376.511C427.685,377.877 426.6,379.009 425.234,379.039C423.869,379.069 422.736,377.985 422.706,376.619L422.62,372.652L389.445,372.652L389.529,376.511C389.559,377.877 388.475,379.009 387.109,379.039C385.744,379.069 384.611,377.985 384.581,376.619L384.494,372.652ZM374.451,390.491L374.451,427.099L437.383,427.099L437.383,390.208L374.451,390.491Z" style="fill:white;"/>
        </g>
    </g>
</svg>
