<?xml version="1.0" encoding="UTF-8" standalone="no"?>
<!DOCTYPE svg PUBLIC "-//W3C//DTD SVG 1.1//EN" "http://www.w3.org/Graphics/SVG/1.1/DTD/svg11.dtd">
<svg width="100%" height="100%" viewBox="0 0 103 103" version="1.1" xmlns="http://www.w3.org/2000/svg" xmlns:xlink="http://www.w3.org/1999/xlink" xml:space="preserve" xmlns:serif="http://www.serif.com/" style="fill-rule:evenodd;clip-rule:evenodd;stroke-linecap:round;stroke-linejoin:round;stroke-miterlimit:1.5;">
    <g transform="matrix(1,0,0,1,-1259.56,-276.411)">
        <g id="Dashboard" transform="matrix(1.28393,0,0,1.98622,-395.29,-673.945)">
            <path d="M1322.06,506.194L1322.06,523.647C1322.06,526.362 1318.65,528.566 1314.45,528.566L1299.23,528.566C1295.03,528.566 1291.62,526.362 1291.62,523.647L1291.62,506.194C1291.62,503.479 1295.03,501.275 1299.23,501.275L1314.45,501.275C1318.65,501.275 1322.06,503.479 1322.06,506.194ZM1366.39,519.003L1366.39,525.378C1366.39,527.138 1364.18,528.566 1361.46,528.566L1340.88,528.566C1338.16,528.566 1335.95,527.138 1335.95,525.378L1335.95,519.003C1335.95,517.243 1338.16,515.815 1340.88,515.815L1361.46,515.815C1364.18,515.815 1366.39,517.243 1366.39,519.003ZM1366.39,485.157L1366.39,502.61C1366.39,505.325 1362.98,507.53 1358.78,507.53L1343.56,507.53C1339.36,507.53 1335.95,505.325 1335.95,502.61L1335.95,485.157C1335.95,482.442 1339.36,480.238 1343.56,480.238L1358.78,480.238C1362.98,480.238 1366.39,482.442 1366.39,485.157ZM1322.06,483.426L1322.06,489.801C1322.06,491.561 1319.85,492.989 1317.13,492.989L1296.55,492.989C1293.83,492.989 1291.62,491.561 1291.62,489.801L1291.62,483.426C1291.62,481.666 1293.83,480.238 1296.55,480.238L1317.13,480.238C1319.85,480.238 1322.06,481.666 1322.06,483.426Z" style="fill:none;stroke:white;stroke-width:4.19px;"/>
        </g>
    </g>
</svg>
