<?xml version="1.0" encoding="UTF-8" standalone="no"?>
<!DOCTYPE svg PUBLIC "-//W3C//DTD SVG 1.1//EN" "http://www.w3.org/Graphics/SVG/1.1/DTD/svg11.dtd">
<svg width="100%" height="100%" viewBox="0 0 100 99" version="1.1" xmlns="http://www.w3.org/2000/svg" xmlns:xlink="http://www.w3.org/1999/xlink" xml:space="preserve" xmlns:serif="http://www.serif.com/" style="fill-rule:evenodd;clip-rule:evenodd;stroke-linejoin:round;stroke-miterlimit:2;">
    <g transform="matrix(1,0,0,1,-1972.77,-279.7)">
        <g transform="matrix(1,0,0,1,0,-153.6)">
            <g transform="matrix(1,0,0,-1,0,965.859)">
                <path d="M1972.86,461.46C1972.86,463.391 1974.44,464.954 1976.37,464.947C1978.3,464.94 1979.86,463.366 1979.86,461.434L1979.78,440.581L2001.78,440.574C2003.71,440.574 2005.28,439.005 2005.28,437.073C2005.28,435.141 2003.71,433.574 2001.78,433.574L1976.27,433.582C1975.34,433.583 1974.44,433.953 1973.79,434.612C1973.13,435.272 1972.77,436.165 1972.77,437.095L1972.86,461.46ZM2064.73,461.434C2064.72,463.366 2066.28,464.94 2068.22,464.947C2070.15,464.954 2071.72,463.391 2071.73,461.46L2071.82,437.095C2071.82,436.165 2071.45,435.272 2070.8,434.612C2070.14,433.953 2069.25,433.583 2068.32,433.582L2042.81,433.574C2040.87,433.574 2039.3,435.141 2039.3,437.073C2039.3,439.005 2040.87,440.574 2042.8,440.574L2064.8,440.581L2064.73,461.434ZM2071.73,504.673C2071.72,502.742 2070.15,501.179 2068.22,501.186C2066.28,501.193 2064.72,502.767 2064.73,504.699C2064.73,504.699 2064.8,525.552 2064.8,525.552L2042.82,525.559C2040.88,525.56 2039.32,527.128 2039.32,529.06C2039.32,530.992 2040.88,532.56 2042.82,532.559L2068.32,532.551C2069.25,532.55 2070.14,532.18 2070.8,531.521C2071.45,530.862 2071.82,529.968 2071.82,529.038L2071.73,504.673ZM1979.86,504.699C1979.86,502.767 1978.3,501.193 1976.37,501.186C1974.44,501.179 1972.86,502.742 1972.86,504.673L1972.77,529.038C1972.77,529.968 1973.13,530.862 1973.79,531.521C1974.44,532.18 1975.34,532.55 1976.27,532.551L2001.78,532.559C2003.71,532.56 2005.28,530.992 2005.28,529.06C2005.28,527.128 2003.71,525.56 2001.78,525.559L1979.78,525.552L1979.86,504.699Z" style="fill:white;"/>
            </g>
        </g>
    </g>
</svg>
