<?xml version="1.0" encoding="UTF-8" standalone="no"?>
<!DOCTYPE svg PUBLIC "-//W3C//DTD SVG 1.1//EN" "http://www.w3.org/Graphics/SVG/1.1/DTD/svg11.dtd">
<svg width="100%" height="100%" viewBox="0 0 54 58" version="1.1" xmlns="http://www.w3.org/2000/svg" xmlns:xlink="http://www.w3.org/1999/xlink" xml:space="preserve" xmlns:serif="http://www.serif.com/" style="fill-rule:evenodd;clip-rule:evenodd;stroke-linejoin:round;stroke-miterlimit:2;">
    <g transform="matrix(1,0,0,1,-2273.43,-305.934)">
        <g id="High" transform="matrix(1.93532,-8.03282e-18,8.03282e-18,-2.00091,-490.566,1314.82)">
            <path d="M1430.01,500.526C1429.01,500.518 1428.19,501.295 1428.19,502.261C1428.18,503.226 1428.98,504.016 1429.98,504.024L1453.56,504.211C1454.56,504.219 1455.38,503.442 1455.38,502.477C1455.39,501.511 1454.59,500.721 1453.59,500.713L1430.01,500.526ZM1428.67,478.152L1440.46,492.563C1440.8,492.98 1441.32,493.224 1441.87,493.226C1442.42,493.228 1442.94,492.987 1443.29,492.572L1455.17,478.255C1455.61,477.731 1455.69,477.013 1455.4,476.407C1455.1,475.8 1454.47,475.413 1453.77,475.411L1430.1,475.317C1429.4,475.314 1428.77,475.697 1428.46,476.301C1428.16,476.905 1428.24,477.625 1428.67,478.152ZM1433.84,478.83L1450.01,478.894L1441.89,488.671L1433.84,478.83Z" style="fill:white;"/>
        </g>
    </g>
</svg>
