<?xml version="1.0" encoding="UTF-8" standalone="no"?>
<!DOCTYPE svg PUBLIC "-//W3C//DTD SVG 1.1//EN" "http://www.w3.org/Graphics/SVG/1.1/DTD/svg11.dtd">
<svg width="100%" height="100%" viewBox="0 0 103 103" version="1.1" xmlns="http://www.w3.org/2000/svg" xmlns:xlink="http://www.w3.org/1999/xlink" xml:space="preserve" xmlns:serif="http://www.serif.com/" style="fill-rule:evenodd;clip-rule:evenodd;stroke-linejoin:round;stroke-miterlimit:2;">
    <g transform="matrix(1,0,0,1,-1823.97,-278.622)">
        <g id="Icon-Designs" serif:id="Icon Designs">
        </g>
        <g id="Single-Path-Icons" serif:id="Single Path Icons">
            <g id="Info" transform="matrix(1.20805,-0.00106098,-0.00106098,0.97887,-394.247,-137.09)">
                <path d="M1879.21,426.722C1902.74,426.748 1921.86,450.343 1921.89,479.38C1921.91,508.417 1902.83,531.971 1879.3,531.946C1855.77,531.92 1836.65,508.325 1836.62,479.288C1836.6,450.251 1855.68,426.697 1879.21,426.722ZM1879.22,433.873C1858.89,433.851 1842.4,454.204 1842.42,479.294C1842.44,504.384 1858.97,524.773 1879.3,524.795C1899.63,524.817 1916.12,504.464 1916.09,479.374C1916.07,454.284 1899.55,433.895 1879.22,433.873ZM1873.41,478.566C1873.39,474.619 1875.98,471.403 1879.17,471.388C1882.37,471.373 1884.98,474.566 1885,478.512L1885.12,504.995C1885.14,508.942 1882.56,512.158 1879.36,512.173C1876.16,512.188 1873.55,508.996 1873.53,505.049L1873.41,478.566ZM1873.44,455.988C1873.44,452.041 1876.03,448.839 1879.23,448.843C1882.43,448.846 1885.03,452.054 1885.03,456L1885.03,456.908C1885.04,460.855 1882.44,464.056 1879.24,464.053C1876.05,464.05 1873.45,460.842 1873.44,456.896L1873.44,455.988Z" style="fill:white;"/>
            </g>
            <g id="Note">
            </g>
        </g>
        <g id="Original-Bitmaps" serif:id="Original Bitmaps">
        </g>
    </g>
</svg>
