<?xml version="1.0" encoding="UTF-8" standalone="no"?>
<!DOCTYPE svg PUBLIC "-//W3C//DTD SVG 1.1//EN" "http://www.w3.org/Graphics/SVG/1.1/DTD/svg11.dtd">
<svg width="100%" height="100%" viewBox="0 0 103 103" version="1.1" xmlns="http://www.w3.org/2000/svg" xmlns:xlink="http://www.w3.org/1999/xlink" xml:space="preserve" xmlns:serif="http://www.serif.com/" style="fill-rule:evenodd;clip-rule:evenodd;stroke-linejoin:round;stroke-miterlimit:2;">
    <g transform="matrix(1,0,0,1,-52.1928,-277.162)">
        <g id="Line-Chart" serif:id="Line Chart" transform="matrix(1.17675,0,0,1.17335,-288.782,-336.353)">
            <path d="M289.76,525.859C289.759,524.213 291.09,522.875 292.732,522.874C294.374,522.873 295.707,524.209 295.708,525.855L295.765,604.463L374.323,604.691C375.965,604.696 377.294,606.036 377.289,607.683C377.284,609.329 375.948,610.662 374.306,610.657L292.785,610.421C291.146,610.416 289.82,609.083 289.819,607.44L289.76,525.859ZM305.381,577.928C304.307,579.173 302.427,579.308 301.186,578.231C299.945,577.153 299.81,575.268 300.884,574.023L322.394,549.108C323.421,547.919 325.191,547.734 326.44,548.684L346.695,564.093L367.908,536.051C368.9,534.739 370.767,534.482 372.075,535.477C373.383,536.472 373.639,538.345 372.647,539.656L349.636,570.075C348.644,571.387 346.778,571.644 345.469,570.648C345.469,570.648 325.067,555.127 325.067,555.127L305.381,577.928Z" style="fill:white;"/>
        </g>
    </g>
</svg>
