<?xml version="1.0" encoding="UTF-8" standalone="no"?>
<!DOCTYPE svg PUBLIC "-//W3C//DTD SVG 1.1//EN" "http://www.w3.org/Graphics/SVG/1.1/DTD/svg11.dtd">
<svg width="100%" height="100%" viewBox="0 0 66 72" version="1.1" xmlns="http://www.w3.org/2000/svg" xmlns:xlink="http://www.w3.org/1999/xlink" xml:space="preserve" xmlns:serif="http://www.serif.com/" style="fill-rule:evenodd;clip-rule:evenodd;stroke-linejoin:round;stroke-miterlimit:2;">
    <g transform="matrix(1,0,0,1,-2388.22,-295.571)">
        <g id="Low" transform="matrix(2.44018,1.01283e-17,1.01283e-17,2.52289,-1097.73,-904.513)">
            <path d="M1429.98,503.662C1429.19,503.656 1428.56,503.029 1428.56,502.264C1428.57,501.498 1429.21,500.881 1430.01,500.888L1453.59,501.075C1454.38,501.081 1455.02,501.708 1455.01,502.474C1455.01,503.239 1454.36,503.856 1453.57,503.849L1429.98,503.662ZM1430.1,475.679L1453.77,475.772C1454.32,475.775 1454.82,476.082 1455.06,476.562C1455.3,477.043 1455.23,477.613 1454.88,478.028L1443,492.346C1442.73,492.675 1442.31,492.866 1441.88,492.864C1441.44,492.863 1441.03,492.669 1440.76,492.338L1428.96,477.927C1428.62,477.509 1428.56,476.939 1428.8,476.459C1429.04,475.98 1429.54,475.677 1430.1,475.679ZM1433.06,478.465L1441.89,489.251L1450.78,478.535L1433.06,478.465Z" style="fill:white;"/>
        </g>
    </g>
</svg>
