<?xml version="1.0" encoding="UTF-8" standalone="no"?>
<!DOCTYPE svg PUBLIC "-//W3C//DTD SVG 1.1//EN" "http://www.w3.org/Graphics/SVG/1.1/DTD/svg11.dtd">
<svg width="100%" height="100%" viewBox="0 0 74 100" version="1.1" xmlns="http://www.w3.org/2000/svg" xmlns:xlink="http://www.w3.org/1999/xlink" xml:space="preserve" xmlns:serif="http://www.serif.com/" style="fill-rule:evenodd;clip-rule:evenodd;stroke-linejoin:round;stroke-miterlimit:2;">
    <g transform="matrix(1,0,0,1,-634.289,-268.568)">
        <g transform="matrix(1.05348,0,0,1.27549,242.2,-193.626)">
            <g id="Note">
                <path d="M425.787,368.794L437.236,368.794L438.274,368.881L439.248,369.131L440.126,369.525L440.888,370.044L441.516,370.673L441.993,371.399L442.296,372.203L442.401,373.06L442.401,435.874L442.296,436.731L441.993,437.535L441.516,438.261L440.888,438.89L440.126,439.409L439.248,439.803L438.274,440.053L437.236,440.14L377.35,440.14L376.312,440.053L375.338,439.803L374.459,439.409L373.698,438.89L373.069,438.261L372.592,437.535L372.29,436.731L372.185,435.874L372.185,373.06L372.29,372.203L372.592,371.399L373.069,370.673L373.698,370.044L374.459,369.525L375.338,369.131L376.312,368.881L377.35,368.794L388.24,368.794L388.144,365.17C388.104,363.656 389.56,362.4 391.393,362.367C393.226,362.334 394.747,363.536 394.787,365.05L394.886,368.794L403.69,368.794L403.595,365.17C403.555,363.656 405.011,362.4 406.844,362.367C408.677,362.334 410.198,363.536 410.238,365.05L410.337,368.794L419.141,368.794L419.045,365.17C419.005,363.656 420.461,362.4 422.294,362.367C424.127,362.334 425.648,363.536 425.688,365.05L425.787,368.794ZM388.385,374.282L378.829,374.282L378.829,434.651L435.756,434.651L435.756,374.282L425.932,374.282L426.045,378.561C426.085,380.075 424.629,381.331 422.796,381.364C420.962,381.397 419.442,380.195 419.402,378.681L419.286,374.282L410.481,374.282L410.594,378.561C410.634,380.075 409.178,381.331 407.345,381.364C405.512,381.397 403.991,380.195 403.951,378.681L403.835,374.282L395.031,374.282L395.144,378.561C395.184,380.075 393.728,381.331 391.895,381.364C390.062,381.397 388.541,380.195 388.501,378.681L388.385,374.282ZM389.317,426.396C387.484,426.403 385.988,425.179 385.98,423.664C385.972,422.15 387.454,420.915 389.287,420.908L413.941,420.816C415.775,420.809 417.27,422.033 417.278,423.548C417.287,425.062 415.805,426.297 413.971,426.304L389.317,426.396ZM389.317,414.793C387.484,414.8 385.988,413.576 385.98,412.061C385.972,410.547 387.454,409.312 389.287,409.305L418.329,409.197C420.163,409.19 421.658,410.414 421.666,411.928C421.675,413.443 420.193,414.678 418.359,414.685L389.317,414.793ZM389.317,403.174C387.484,403.18 385.988,401.956 385.98,400.442C385.972,398.927 387.454,397.692 389.287,397.686L406.712,397.621C408.546,397.614 410.041,398.838 410.049,400.352C410.057,401.867 408.575,403.102 406.742,403.109L389.317,403.174ZM389.317,391.598C387.484,391.604 385.988,390.38 385.98,388.866C385.972,387.351 387.454,386.116 389.287,386.11L425.634,385.974C427.467,385.967 428.963,387.191 428.971,388.706C428.979,390.22 427.497,391.455 425.664,391.462L389.317,391.598Z" style="fill:white;"/>
            </g>
        </g>
    </g>
</svg>
