<?xml version="1.0" encoding="UTF-8" standalone="no"?>
<!DOCTYPE svg PUBLIC "-//W3C//DTD SVG 1.1//EN" "http://www.w3.org/Graphics/SVG/1.1/DTD/svg11.dtd">
<svg width="100%" height="100%" viewBox="0 0 92 63" version="1.1" xmlns="http://www.w3.org/2000/svg" xmlns:xlink="http://www.w3.org/1999/xlink" xml:space="preserve" xmlns:serif="http://www.serif.com/" style="fill-rule:evenodd;clip-rule:evenodd;stroke-linejoin:round;stroke-miterlimit:2;">
    <g transform="matrix(1,0,0,1,-988.99,-294.022)">
        <g transform="matrix(1.53004,0,0,1.53004,-577.039,-364.569)">
            <path d="M1057.87,463.684C1058.45,465.374 1058.78,467.18 1058.81,469.056C1058.82,469.67 1058.58,470.262 1058.15,470.7C1057.72,471.138 1057.13,471.384 1056.52,471.384L1025.81,471.384C1025.2,471.384 1024.61,471.138 1024.18,470.7C1023.75,470.262 1023.51,469.67 1023.52,469.056C1023.68,460.484 1029.95,453.395 1038.16,451.984C1033.56,450.676 1030.19,446.44 1030.19,441.421C1030.19,435.362 1035.11,430.442 1041.17,430.442C1047.23,430.442 1052.15,435.362 1052.15,441.421C1052.15,446.44 1048.77,450.676 1044.17,451.984C1048.81,452.781 1052.83,455.392 1055.48,459.06C1056.94,457.264 1058.79,455.798 1060.91,454.794C1058.25,452.789 1056.54,449.609 1056.54,446.031C1056.54,439.971 1061.46,435.052 1067.52,435.052C1073.58,435.052 1078.5,439.971 1078.5,446.031C1078.5,449.588 1076.8,452.752 1074.18,454.759C1079.49,457.245 1083.17,462.637 1083.17,468.882C1083.17,468.966 1083.17,469.049 1083.16,469.133C1083.14,470.395 1082.1,471.404 1080.84,471.384C1079.58,471.364 1078.57,470.323 1078.59,469.06C1078.59,469.001 1078.59,468.941 1078.59,468.882C1078.59,462.804 1073.66,457.87 1067.58,457.87C1063.38,457.87 1059.73,460.225 1057.87,463.684ZM1067.52,439.627C1063.98,439.627 1061.11,442.496 1061.11,446.031C1061.11,449.566 1063.98,452.435 1067.52,452.435C1071.05,452.435 1073.92,449.566 1073.92,446.031C1073.92,442.496 1071.05,439.627 1067.52,439.627Z" style="fill:white;"/>
        </g>
    </g>
</svg>
