<?xml version="1.0" encoding="UTF-8" standalone="no"?>
<!DOCTYPE svg PUBLIC "-//W3C//DTD SVG 1.1//EN" "http://www.w3.org/Graphics/SVG/1.1/DTD/svg11.dtd">
<svg width="100%" height="100%" viewBox="0 0 103 103" version="1.1" xmlns="http://www.w3.org/2000/svg" xmlns:xlink="http://www.w3.org/1999/xlink" xml:space="preserve" xmlns:serif="http://www.serif.com/" style="fill-rule:evenodd;clip-rule:evenodd;stroke-linejoin:round;stroke-miterlimit:2;">
    <g transform="matrix(1,0,0,1,-1129.55,-275.901)">
        <g id="Pie-Chart" serif:id="Pie Chart" transform="matrix(1.05565,0,0,1.06034,-56.8507,-153.384)">
            <path d="M1207.39,466.114C1207.84,464.349 1209.65,463.28 1211.42,463.729C1213.19,464.178 1214.27,465.976 1213.82,467.741C1208.79,487.421 1190.86,501.996 1169.54,501.996C1144.33,501.996 1123.86,481.617 1123.86,456.515C1123.86,435.319 1138.45,417.491 1158.17,412.455C1159.95,412.003 1161.75,413.068 1162.21,414.833C1162.66,416.597 1161.59,418.398 1159.82,418.85C1142.96,423.155 1130.49,438.396 1130.49,456.515C1130.49,477.973 1147.99,495.394 1169.54,495.394C1187.77,495.394 1203.09,482.937 1207.39,466.114ZM1218.11,453.639L1175.74,453.639C1173.91,453.639 1172.43,452.162 1172.43,450.339L1172.43,408.158C1172.43,406.335 1173.91,404.857 1175.74,404.857C1200.96,404.857 1221.43,425.237 1221.43,450.339C1221.43,452.162 1219.94,453.639 1218.11,453.639ZM1214.66,447.038C1213.06,428.21 1197.97,413.183 1179.06,411.597L1179.06,447.038L1214.66,447.038Z" style="fill:white;"/>
        </g>
    </g>
</svg>
