<?xml version="1.0" encoding="UTF-8" standalone="no"?>
<!DOCTYPE svg PUBLIC "-//W3C//DTD SVG 1.1//EN" "http://www.w3.org/Graphics/SVG/1.1/DTD/svg11.dtd">
<svg width="100%" height="100%" viewBox="0 0 100 99" version="1.1" xmlns="http://www.w3.org/2000/svg" xmlns:xlink="http://www.w3.org/1999/xlink" xml:space="preserve" xmlns:serif="http://www.serif.com/" style="fill-rule:evenodd;clip-rule:evenodd;stroke-linejoin:round;stroke-miterlimit:2;">
    <g transform="matrix(1,0,0,1,-1972.77,-279.7)">
        <g id="Icon-Designs" serif:id="Icon Designs">
        </g>
        <g id="Single-Path-Icons" serif:id="Single Path Icons">
            <g transform="matrix(1,0,0,-1,11.0193,800.274)">
                <g id="Full-Screen" serif:id="Full Screen">
                    <path d="M1972.86,461.46C1972.86,463.391 1974.44,464.954 1976.37,464.947C1978.3,464.94 1979.86,463.366 1979.86,461.434L1979.78,440.581L2001.78,440.574C2003.71,440.574 2005.28,439.005 2005.28,437.073C2005.28,435.141 2003.71,433.574 2001.78,433.574L1976.27,433.582C1975.34,433.583 1974.44,433.953 1973.79,434.612C1973.13,435.272 1972.77,436.165 1972.77,437.095L1972.86,461.46ZM2042.69,461.434C2042.68,463.366 2044.25,464.94 2046.18,464.947C2048.11,464.954 2049.68,463.391 2049.69,461.46L2049.78,437.095C2049.78,436.165 2049.42,435.272 2048.76,434.612C2048.1,433.953 2047.21,433.583 2046.28,433.582L2020.77,433.574C2018.84,433.574 2017.27,435.141 2017.27,437.073C2017.27,439.005 2018.84,440.574 2020.77,440.574L2042.77,440.581L2042.69,461.434ZM2049.69,480.661C2049.68,478.73 2048.11,477.167 2046.18,477.174C2044.25,477.181 2042.68,478.755 2042.69,480.687C2042.69,480.687 2042.77,501.54 2042.77,501.54L2020.78,501.547C2018.85,501.548 2017.28,503.116 2017.28,505.048C2017.28,506.98 2018.85,508.548 2020.78,508.547L2046.28,508.539C2047.21,508.538 2048.1,508.168 2048.76,507.509C2049.42,506.85 2049.78,505.956 2049.78,505.026L2049.69,480.661ZM1979.86,480.687C1979.86,478.755 1978.3,477.181 1976.37,477.174C1974.44,477.167 1972.86,478.73 1972.86,480.661L1972.77,505.026C1972.77,505.956 1973.13,506.85 1973.79,507.509C1974.44,508.168 1975.34,508.538 1976.27,508.539L2001.78,508.547C2003.71,508.548 2005.28,506.98 2005.28,505.048C2005.28,503.116 2003.71,501.548 2001.78,501.547L1979.78,501.54L1979.86,480.687Z" style="fill:white;"/>
                </g>
            </g>
            <g id="Note">
            </g>
        </g>
        <g id="Original-Bitmaps" serif:id="Original Bitmaps">
        </g>
    </g>
</svg>
