<?xml version="1.0" encoding="UTF-8" standalone="no"?>
<!DOCTYPE svg PUBLIC "-//W3C//DTD SVG 1.1//EN" "http://www.w3.org/Graphics/SVG/1.1/DTD/svg11.dtd">
<svg width="100%" height="100%" viewBox="0 0 92 90" version="1.1" xmlns="http://www.w3.org/2000/svg" xmlns:xlink="http://www.w3.org/1999/xlink" xml:space="preserve" xmlns:serif="http://www.serif.com/" style="fill-rule:evenodd;clip-rule:evenodd;stroke-linejoin:round;stroke-miterlimit:2;">
    <g transform="matrix(1,0,0,1,-856.788,-283.486)">
        <g id="Calculator">
        </g>
        <g id="Note">
        </g>
        <g id="View">
        </g>
        <g id="Calendar">
        </g>
        <g id="BarChart">
        </g>
        <g id="LineChart">
        </g>
        <g id="Target" transform="matrix(0,1.70155,-1.62395,-0.00330833,1472.51,-328.55)">
            <path d="M389.011,373.413L389.088,376.95C389.114,378.139 388.213,379.125 387.078,379.15C385.943,379.174 385.001,378.229 384.975,377.04L384.898,373.503C374.819,372.679 366.605,364.24 365.42,353.43L362.481,353.494C361.346,353.519 360.403,352.574 360.377,351.384C360.351,350.195 361.252,349.21 362.387,349.185L365.326,349.121C366.039,338.27 373.877,329.481 383.91,328.218L383.843,325.147C383.817,323.958 384.718,322.972 385.853,322.947C386.988,322.923 387.93,323.868 387.956,325.057L388.023,328.129C398.102,328.953 406.316,337.392 407.501,348.201L410.715,348.131C411.85,348.106 412.792,349.052 412.818,350.241C412.844,351.43 411.944,352.416 410.809,352.44L407.595,352.511C406.882,363.361 399.044,372.15 389.011,373.413ZM369.555,353.34C370.648,361.744 376.973,368.323 384.803,369.167L384.733,365.948C384.707,364.759 385.608,363.773 386.743,363.748C387.877,363.723 388.82,364.669 388.846,365.858L388.916,369.077C396.703,367.893 402.734,361.044 403.46,352.601L400.223,352.671C399.088,352.696 398.146,351.751 398.12,350.561C398.094,349.372 398.994,348.387 400.129,348.362L403.366,348.291C402.273,339.887 395.948,333.308 388.118,332.465L388.198,336.149C388.224,337.338 387.324,338.324 386.189,338.349C385.054,338.374 384.111,337.428 384.085,336.239L384.005,332.554C376.218,333.738 370.187,340.587 369.461,349.031L372.972,348.954C374.107,348.929 375.05,349.875 375.076,351.064C375.102,352.253 374.201,353.239 373.066,353.263L369.555,353.34Z" style="fill:white;"/>
        </g>
        <g id="Note1" serif:id="Note">
        </g>
    </g>
</svg>
