<?xml version="1.0" encoding="UTF-8" standalone="no"?>
<!DOCTYPE svg PUBLIC "-//W3C//DTD SVG 1.1//EN" "http://www.w3.org/Graphics/SVG/1.1/DTD/svg11.dtd">
<svg width="100%" height="100%" viewBox="0 0 79 104" version="1.1" xmlns="http://www.w3.org/2000/svg" xmlns:xlink="http://www.w3.org/1999/xlink" xml:space="preserve" xmlns:serif="http://www.serif.com/" style="fill-rule:evenodd;clip-rule:evenodd;stroke-linejoin:round;stroke-miterlimit:2;">
    <g transform="matrix(1,0,0,1,-1552.56,-276.401)">
        <g id="Timeline" transform="matrix(1,0,0,1,0,-163.44)">
            <path d="M1557.23,471.195C1554.47,469.85 1552.56,467.008 1552.56,463.719C1552.56,460.463 1554.43,457.644 1557.15,456.283L1557.08,443.36C1557.07,441.428 1558.63,439.852 1560.56,439.841C1562.5,439.83 1564.07,441.39 1564.08,443.322L1564.15,456.104C1567.08,457.385 1569.13,460.312 1569.13,463.719C1569.13,467.094 1567.12,469.998 1564.24,471.298L1564.31,484.494C1567.15,485.809 1569.13,488.692 1569.13,492.039C1569.13,495.354 1567.19,498.215 1564.39,499.547L1564.46,512.887C1567.22,514.234 1569.13,517.073 1569.13,520.359C1569.13,523.613 1567.26,526.429 1564.54,527.792L1564.61,539.322C1564.62,541.254 1563.06,542.83 1561.12,542.841C1559.19,542.851 1557.62,541.292 1557.61,539.36L1557.54,527.978C1554.61,526.699 1552.56,523.769 1552.56,520.359C1552.56,516.981 1554.57,514.075 1557.46,512.778L1557.39,499.588C1554.54,498.275 1552.56,495.389 1552.56,492.039C1552.56,488.722 1554.5,485.859 1557.31,484.529L1557.23,471.195ZM1560.84,519.055C1560.13,519.055 1559.56,519.643 1559.56,520.359C1559.56,521.076 1560.13,521.664 1560.84,521.664C1561.56,521.664 1562.13,521.076 1562.13,520.359C1562.13,519.643 1561.56,519.055 1560.84,519.055ZM1560.84,462.415C1560.13,462.415 1559.56,463.003 1559.56,463.719C1559.56,464.436 1560.13,465.024 1560.84,465.024C1561.56,465.024 1562.13,464.436 1562.13,463.719C1562.13,463.003 1561.56,462.415 1560.84,462.415ZM1560.84,490.735C1560.13,490.735 1559.56,491.323 1559.56,492.039C1559.56,492.756 1560.13,493.344 1560.84,493.344C1561.56,493.344 1562.13,492.756 1562.13,492.039C1562.13,491.323 1561.56,490.735 1560.84,490.735ZM1582.17,523.471C1580.24,523.476 1578.67,521.911 1578.66,519.979C1578.66,518.048 1580.22,516.476 1582.15,516.471L1612.51,516.399C1614.44,516.394 1616.01,517.959 1616.02,519.891C1616.02,521.822 1614.46,523.394 1612.53,523.399L1582.17,523.471ZM1582.16,495.151C1580.23,495.152 1578.66,493.584 1578.66,491.653C1578.66,489.721 1580.23,488.152 1582.16,488.151L1627.1,488.13C1629.03,488.129 1630.6,489.697 1630.6,491.629C1630.6,493.56 1629.04,495.129 1627.1,495.13L1582.16,495.151ZM1582.17,466.351C1580.24,466.355 1578.67,464.789 1578.66,462.857C1578.66,460.926 1580.22,459.355 1582.16,459.351L1619.62,459.282C1621.56,459.279 1623.13,460.844 1623.13,462.776C1623.13,464.708 1621.57,466.279 1619.64,466.282L1582.17,466.351Z" style="fill:white;"/>
        </g>
    </g>
</svg>
