<?xml version="1.0" encoding="UTF-8" standalone="no"?>
<!DOCTYPE svg PUBLIC "-//W3C//DTD SVG 1.1//EN" "http://www.w3.org/Graphics/SVG/1.1/DTD/svg11.dtd">
<svg width="100%" height="100%" viewBox="0 0 100 107" version="1.1" xmlns="http://www.w3.org/2000/svg" xmlns:xlink="http://www.w3.org/1999/xlink" xml:space="preserve" xmlns:serif="http://www.serif.com/" style="fill-rule:evenodd;clip-rule:evenodd;stroke-linejoin:round;stroke-miterlimit:2;">
    <g transform="matrix(1,0,0,1,-1682.24,-272.011)">
        <g id="Icon-Designs" serif:id="Icon Designs">
        </g>
        <g id="Single-Path-Icons" serif:id="Single Path Icons">
            <g id="Tip" transform="matrix(0.855869,0,0,0.855869,319.869,-16.0019)">
                <path d="M1635.82,436.335C1635.86,434.713 1635.89,430.058 1634.83,427.797C1634.17,426.398 1632.38,424.599 1630.8,423.069L1630.8,423.064C1622.43,416.864 1616.97,406.78 1616.97,395.395C1616.97,376.518 1631.97,361.243 1650.37,361.243C1668.78,361.243 1683.77,376.518 1683.77,395.395C1683.77,404.724 1680.11,413.181 1674.18,419.341C1674.18,419.341 1669.13,424.829 1667.48,427.942C1666.05,430.632 1665.7,434.696 1665.62,436.347C1665.63,436.454 1665.63,436.562 1665.63,436.67L1665.44,452.901C1665.41,455.143 1663.59,456.946 1661.35,456.942L1657.47,456.937C1657.44,456.95 1657.42,456.963 1657.4,456.976L1652.58,459.804C1651.15,460.641 1649.36,460.535 1648.04,459.536L1644.59,456.918L1639.88,456.912C1637.62,456.908 1635.79,455.077 1635.79,452.82L1635.8,437.258C1635.79,437.142 1635.79,437.025 1635.79,436.907C1635.79,436.907 1635.8,436.869 1635.8,436.798L1635.8,436.703C1635.8,436.579 1635.81,436.456 1635.82,436.335ZM1657.84,432.547C1658.22,429.917 1658.93,426.599 1660.25,424.11C1661.91,420.982 1666.46,415.766 1667.83,414.225C1667.95,414.043 1668.09,413.869 1668.25,413.705C1672.79,409.003 1675.6,402.531 1675.6,395.395C1675.6,381.088 1664.32,369.422 1650.37,369.422C1636.42,369.422 1625.15,381.088 1625.15,395.395C1625.15,404.153 1629.37,411.912 1635.85,416.624C1636,416.735 1636.14,416.857 1636.28,416.988C1638.65,419.271 1641.23,422.189 1642.23,424.31C1643.19,426.363 1643.63,429.8 1643.82,432.601L1657.84,432.547ZM1643.98,441.106L1643.97,448.739L1657.31,448.758C1657.31,448.758 1657.38,442.63 1657.4,441.081L1643.98,441.106ZM1690.85,435.753C1692.37,437.42 1692.25,440.008 1690.59,441.531C1688.92,443.053 1686.33,442.937 1684.81,441.271L1677.71,433.501C1676.19,431.835 1676.3,429.246 1677.97,427.723C1679.63,426.201 1682.22,426.317 1683.75,427.983L1690.85,435.753ZM1694.02,403.481C1691.76,403.481 1689.93,401.648 1689.93,399.391C1689.93,397.134 1691.76,395.302 1694.02,395.302L1704.54,395.302C1706.8,395.302 1708.63,397.134 1708.63,399.391C1708.63,401.648 1706.8,403.481 1704.54,403.481L1694.02,403.481ZM1687.55,368.254C1686.03,369.92 1683.44,370.036 1681.77,368.514C1680.11,366.991 1679.99,364.403 1681.51,362.737L1688.61,354.967C1690.13,353.3 1692.72,353.184 1694.39,354.706C1696.06,356.229 1696.17,358.818 1694.65,360.484L1687.55,368.254ZM1655.3,351.129C1655.3,353.386 1653.46,355.219 1651.2,355.219C1648.95,355.219 1647.12,353.386 1647.12,351.129L1647.12,340.604C1647.12,338.347 1648.95,336.515 1651.2,336.515C1653.46,336.515 1655.3,338.347 1655.3,340.604L1655.3,351.129ZM1620.47,362.737C1622,364.403 1621.88,366.991 1620.21,368.514C1618.55,370.036 1615.96,369.92 1614.44,368.254L1607.34,360.484C1605.81,358.818 1605.93,356.229 1607.6,354.706C1609.26,353.184 1611.85,353.3 1613.37,354.967L1620.47,362.737ZM1595.89,403.481C1593.63,403.481 1591.8,401.648 1591.8,399.391C1591.8,397.134 1593.63,395.302 1595.89,395.302L1606.42,395.302C1608.67,395.302 1610.51,397.134 1610.51,399.391C1610.51,401.648 1608.67,403.481 1606.42,403.481L1595.89,403.481ZM1615.5,441.271C1613.97,442.937 1611.38,443.053 1609.72,441.531C1608.05,440.008 1607.94,437.42 1609.46,435.753L1616.56,427.983C1618.08,426.317 1620.67,426.201 1622.34,427.723C1624,429.246 1624.12,431.835 1622.6,433.501L1615.5,441.271Z" style="fill:white;"/>
            </g>
            <g id="Note">
            </g>
        </g>
        <g id="Original-Bitmaps" serif:id="Original Bitmaps">
        </g>
    </g>
</svg>
