<?xml version="1.0" encoding="UTF-8" standalone="no"?>
<!DOCTYPE svg PUBLIC "-//W3C//DTD SVG 1.1//EN" "http://www.w3.org/Graphics/SVG/1.1/DTD/svg11.dtd">
<svg width="100%" height="100%" viewBox="0 0 103 103" version="1.1" xmlns="http://www.w3.org/2000/svg" xmlns:xlink="http://www.w3.org/1999/xlink" xml:space="preserve" xmlns:serif="http://www.serif.com/" style="fill-rule:evenodd;clip-rule:evenodd;stroke-linejoin:round;stroke-miterlimit:2;">
    <g transform="matrix(1,0,0,1,-2111.3,-279.987)">
        <g id="Trend" transform="matrix(1.17675,0,0,1.17335,1770.32,-333.528)">
            <path d="M358.711,545.451L318.558,585.034C317.387,586.188 315.502,586.172 314.352,584.998C313.201,583.823 313.217,581.933 314.388,580.779L354.709,541.031L348.515,541.021C346.873,541.018 345.543,539.679 345.545,538.033C345.548,536.386 346.883,535.052 348.524,535.055L361.721,535.076C362.511,535.078 363.269,535.394 363.826,535.956C364.383,536.518 364.694,537.279 364.691,538.072L364.634,551.354C364.627,553.001 363.289,554.332 361.647,554.325C360.006,554.318 358.679,552.975 358.686,551.329L358.711,545.451ZM289.76,525.859C289.759,524.213 291.09,522.875 292.732,522.874C294.374,522.873 295.707,524.209 295.708,525.855L295.765,604.463L374.323,604.691C375.965,604.696 377.294,606.036 377.289,607.683C377.284,609.329 375.948,610.662 374.306,610.657L292.785,610.421C291.146,610.416 289.82,609.083 289.819,607.44L289.76,525.859Z" style="fill:white;"/>
        </g>
    </g>
</svg>
