<?xml version="1.0" encoding="UTF-8" standalone="no"?>
<!DOCTYPE svg PUBLIC "-//W3C//DTD SVG 1.1//EN" "http://www.w3.org/Graphics/SVG/1.1/DTD/svg11.dtd">
<svg width="100%" height="100%" viewBox="0 0 104 57" version="1.1" xmlns="http://www.w3.org/2000/svg" xmlns:xlink="http://www.w3.org/1999/xlink" xml:space="preserve" xmlns:serif="http://www.serif.com/" style="fill-rule:evenodd;clip-rule:evenodd;stroke-linejoin:round;stroke-miterlimit:2;">
    <g transform="matrix(1,0,0,1,-495.631,-268.568)">
        <g transform="matrix(1.10047,0,0,1.10047,-213.753,-199.47)">
            <path d="M645.728,448.964C645.728,448.964 659.016,437.597 666.166,433.236C673.396,428.827 681.968,425.432 690.303,425.31C698.628,425.188 708.558,427.986 716.17,432.537C723.369,436.842 737.053,447.89 737.053,447.89C737.772,448.472 738.203,449.339 738.232,450.264C738.261,451.189 737.886,452.08 737.204,452.706C737.204,452.706 724.689,464.171 716.445,469.124C709.012,473.59 699.556,476.74 691.661,477.029C683.797,477.317 675.875,474.45 668.876,470.855C661.396,467.013 645.743,453.807 645.743,453.807C645.032,453.205 644.62,452.321 644.617,451.389C644.614,450.457 645.021,449.571 645.728,448.964ZM677.312,434.645C674.579,435.78 671.941,437.164 669.478,438.667C664.65,441.611 656.917,447.893 652.75,451.364C657.427,455.206 666.633,462.552 671.782,465.197C673.554,466.107 675.391,466.975 677.274,467.742C672.558,463.783 669.559,457.844 669.559,451.209C669.559,444.557 672.574,438.604 677.312,434.645ZM705.182,467.569C707.983,466.48 710.702,465.154 713.169,463.672C718.663,460.371 726.14,454.017 730.128,450.506C725.836,447.121 717.813,440.931 712.905,437.997C710.234,436.399 707.236,435.044 704.135,434.003C709.334,437.944 712.695,444.187 712.695,451.209C712.695,457.748 709.78,463.612 705.182,467.569ZM691.127,435.995C682.733,435.995 675.919,442.813 675.919,451.209C675.919,459.606 682.733,466.424 691.127,466.424C699.52,466.424 706.334,459.606 706.334,451.209C706.334,442.813 699.52,435.995 691.127,435.995ZM691.127,443.173C695.562,443.173 699.163,446.774 699.163,451.209C699.163,455.645 695.562,459.246 691.127,459.246C686.691,459.246 683.09,455.645 683.09,451.209C683.09,446.774 686.691,443.173 691.127,443.173Z" style="fill:white;"/>
        </g>
    </g>
</svg>
